<?xml version="1.0" encoding="UTF-8"?>
<svg version="1.1" xmlns="http://www.w3.org/2000/svg" width="256" height="256">
<path d="M0 0 C0.54140625 0.39807861 1.0828125 0.79615723 1.640625 1.20629883 C4.39135202 2.27109639 5.35836154 2.30268147 8.203125 1.33129883 C9.0075 0.96004883 9.811875 0.58879883 10.640625 0.20629883 C14.78220826 -1.17422893 17.28136602 0.46248097 21.08203125 2.13598633 C21.80551254 2.44577423 22.52899384 2.75556213 23.2743988 3.07473755 C25.58795144 4.0679696 27.89545007 5.07449672 30.203125 6.08129883 C31.76199688 6.75273819 33.32123767 7.42332175 34.88085938 8.09301758 C45.89399079 12.83298172 45.89399079 12.83298172 48.640625 14.20629883 C48.95 15.34067383 49.259375 16.47504883 49.578125 17.64379883 C50.29683857 21.43846881 50.29683857 21.43846881 53.640625 23.20629883 C54.45426514 23.26003662 55.26790527 23.31377441 56.10620117 23.36914062 C58.640625 24.20629883 58.640625 24.20629883 60.4934082 27.37744141 C61.08001903 28.77677453 61.64469099 30.18543335 62.19140625 31.60083008 C62.49507614 32.34459396 62.79874603 33.08835785 63.11161804 33.85466003 C63.75005358 35.4288588 64.37905047 37.00691363 64.99926758 38.58837891 C65.94845293 41.00689443 66.92545158 43.41258203 67.90820312 45.81762695 C68.52510368 47.34885778 69.14039237 48.88073918 69.75390625 50.41333008 C70.04445389 51.13325638 70.33500153 51.85318268 70.63435364 52.59492493 C71.98606125 56.06013958 72.640625 58.4323205 72.640625 62.20629883 C71.980625 62.20629883 71.320625 62.20629883 70.640625 62.20629883 C70.599375 63.46442383 70.558125 64.72254883 70.515625 66.01879883 C70.49242187 66.72649414 70.46921875 67.43418945 70.4453125 68.16333008 C70.50808038 70.51989602 70.50808038 70.51989602 72.640625 73.20629883 C72.2834824 77.92936197 70.69556885 82.14284761 68.9453125 86.50317383 C68.67478058 87.17801819 68.40424866 87.85286255 68.1255188 88.54815674 C67.55268129 89.964894 66.97594334 91.38005982 66.39550781 92.79370117 C65.80792571 94.23787494 65.23208204 95.68687929 64.66796875 97.14038086 C63.84838954 99.25175031 62.9950594 101.34642563 62.1328125 103.44067383 C61.88771942 104.08961609 61.64262634 104.73855835 61.3901062 105.40716553 C60.61279297 107.22875977 60.61279297 107.22875977 58.640625 110.20629883 C55.04736328 111.44165039 55.04736328 111.44165039 51.640625 112.20629883 C49.48249388 114.96444696 49.48249388 114.96444696 49.30981445 117.73754883 C48.640625 120.20629883 48.640625 120.20629883 46.60620117 121.61254883 C45.72424072 121.97348633 44.84228027 122.33442383 43.93359375 122.70629883 C42.95946533 123.11654297 41.98533691 123.52678711 40.98168945 123.94946289 C39.94101318 124.36421875 38.90033691 124.77897461 37.828125 125.20629883 C36.25647583 125.85550293 36.25647583 125.85550293 34.65307617 126.51782227 C32.58249241 127.37222134 30.50905554 128.21974381 28.43261719 129.05981445 C26.12538241 130.0072414 23.85156757 130.99278223 21.5859375 132.03442383 C20.55210937 132.50364258 19.51828125 132.97286133 18.453125 133.45629883 C17.16341797 134.0518457 17.16341797 134.0518457 15.84765625 134.65942383 C13.640625 135.20629883 13.640625 135.20629883 11.52734375 134.36645508 C10.90472656 133.98360352 10.28210938 133.60075195 9.640625 133.20629883 C6.67407454 132.29514883 6.67407454 132.29514883 3.640625 132.20629883 C2.7434375 133.01067383 2.7434375 133.01067383 1.828125 133.83129883 C1.10625 134.28504883 0.384375 134.73879883 -0.359375 135.20629883 C-3.43324437 134.3153222 -6.36230773 133.31562506 -9.359375 132.20629883 C-10.94383423 131.64241455 -10.94383423 131.64241455 -12.56030273 131.06713867 C-16.11574502 129.78309592 -19.64324524 128.43714577 -23.171875 127.08129883 C-24.99235352 126.42774414 -24.99235352 126.42774414 -26.84960938 125.76098633 C-35.64862599 122.33292451 -35.64862599 122.33292451 -37.79052734 118.93774414 C-38.68359375 116.52661133 -38.68359375 116.52661133 -39.16674805 114.26147461 C-40.65817512 111.69139618 -41.44740838 111.73370951 -44.22387695 110.91503906 C-47.55421122 109.81008217 -48.96594819 108.93280959 -50.55273438 105.77636719 C-51.13283915 104.37835687 -51.68167008 102.96707155 -52.203125 101.54614258 C-52.50255005 100.80046524 -52.8019751 100.0547879 -53.11047363 99.28651428 C-54.05453835 96.91547782 -54.9566754 94.53084679 -55.859375 92.14379883 C-56.49478959 90.53534492 -57.13278527 88.92790813 -57.7734375 87.3215332 C-62.359375 75.70807674 -62.359375 75.70807674 -62.359375 73.20629883 C-61.699375 73.20629883 -61.039375 73.20629883 -60.359375 73.20629883 C-59.6159369 69.22066717 -59.6159369 69.22066717 -59.359375 65.20629883 C-60.16375 64.24723633 -60.16375 64.24723633 -60.984375 63.26879883 C-61.438125 62.58817383 -61.891875 61.90754883 -62.359375 61.20629883 C-61.46878306 58.1323202 -60.46981603 55.20307937 -59.359375 52.20629883 C-58.97813477 51.14451416 -58.59689453 50.08272949 -58.20410156 48.98876953 C-56.9021526 45.41898256 -55.54190526 41.87546613 -54.171875 38.33129883 C-53.72779297 37.10926758 -53.28371094 35.88723633 -52.82617188 34.62817383 C-49.36995933 25.79508902 -49.36995933 25.79508902 -46.35302734 24.03735352 C-44.95720699 23.64723548 -43.55044044 23.29422752 -42.13549805 22.98046875 C-40.1734549 22.36718703 -40.1734549 22.36718703 -39.55786133 20.32470703 C-39.34798584 19.55731201 -39.13811035 18.78991699 -38.921875 17.99926758 C-37.27044687 13.53298744 -34.99728286 12.11145696 -30.87548828 10.14871216 C-27.85870317 8.84248866 -24.82146825 7.61043803 -21.75097656 6.43603516 C-19.35178228 5.51588684 -16.97735113 4.54642637 -14.6015625 3.56762695 C-13.08452224 2.961129 -11.56632746 2.35750921 -10.046875 1.75708008 C-9.33635986 1.46875809 -8.62584473 1.1804361 -7.89379883 0.88337708 C-2.93061301 -0.98586743 -2.93061301 -0.98586743 0 0 Z " fill="#3871C1" transform="translate(122.359375,60.793701171875)"/>
<path d="M0 0 C0.53109375 0.65871094 1.0621875 1.31742187 1.609375 1.99609375 C4.07854604 4.95593339 6.60425034 7.73720237 9.359375 10.43359375 C12.64321333 13.66671643 15.68063864 17.04206364 18.68359375 20.53515625 C21.12206191 23.29761669 23.72247085 25.86100434 26.359375 28.43359375 C24.81810149 32.14627469 22.55094266 34.41475073 19.671875 37.18359375 C15.95460969 40.82086052 12.46486766 44.53214985 9.08984375 48.484375 C6.54595571 51.34983805 3.80997695 54.00697929 1.05859375 56.671875 C-0.83151636 58.52668681 -0.83151636 58.52668681 -2.640625 61.43359375 C-6.16495345 61.62948566 -9.25824082 61.49475904 -12.640625 60.43359375 C-15.26689936 57.67837702 -16.63474386 54.52515235 -18.140625 51.05859375 C-18.96321009 49.32145753 -19.78611367 47.58447209 -20.609375 45.84765625 C-20.95419922 45.07373535 -21.29902344 44.29981445 -21.65429688 43.50244141 C-22.68734175 41.20899491 -22.68734175 41.20899491 -24.640625 38.43359375 C-24.32606947 35.98006063 -23.80901478 33.85456821 -22.890625 31.55859375 C-22.38045805 29.16906349 -22.38045805 29.16906349 -24.4921875 26.57421875 C-25.74527312 23.74890685 -25.70238721 22.63551679 -24.78320312 19.63037109 C-23.24771659 16.34648137 -21.55439624 13.21149096 -19.765625 10.05859375 C-18.90324219 8.40150391 -18.90324219 8.40150391 -18.0234375 6.7109375 C-13.65776414 -1.21159027 -13.65776414 -1.21159027 -8.9453125 -2.85546875 C-2.390221 -2.28209195 -2.390221 -2.28209195 0 0 Z " fill="#3771C1" transform="translate(228.640625,98.56640625)"/>
<path d="M0 0 C3.88176934 1.68532012 5.18673112 4.83809327 6.90209961 8.53222656 C7.61691285 9.94109621 8.33175637 11.34995049 9.04663086 12.75878906 C9.38106201 13.45004883 9.71549316 14.14130859 10.06005859 14.85351562 C11.08249937 16.89306313 12.19973856 18.84369431 13.36303711 20.80566406 C15.08959961 23.90722656 15.08959961 23.90722656 14.90209961 25.90722656 C14.63397461 26.56722656 14.36584961 27.22722656 14.08959961 27.90722656 C13.35605706 32.38738697 13.35605706 32.38738697 13.08959961 36.90722656 C13.74959961 36.90722656 14.40959961 36.90722656 15.08959961 36.90722656 C14.14443383 42.8131926 11.43586919 47.46243405 8.58959961 52.65722656 C8.09717773 53.62789062 7.60475586 54.59855469 7.09741211 55.59863281 C3.37712993 62.3499063 3.37712993 62.3499063 -0.17944336 63.8894043 C-3.82342849 64.46109045 -6.07155987 64.38990365 -9.29321289 62.53613281 C-9.86813477 61.85421875 -10.44305664 61.17230469 -11.03540039 60.46972656 C-11.68637695 59.72980469 -12.33735352 58.98988281 -13.00805664 58.22753906 C-13.9497168 57.07898438 -13.9497168 57.07898438 -14.91040039 55.90722656 C-16.09533866 54.55081774 -17.28275165 53.19656589 -18.47290039 51.84472656 C-19.04137695 51.1834375 -19.60985352 50.52214844 -20.19555664 49.84082031 C-22.40233271 47.35254205 -24.7608896 45.04495485 -27.13305664 42.71582031 C-30.21194027 39.58280246 -33.05770775 36.24548391 -35.91040039 32.90722656 C-34.61969715 30.0889938 -33.24367418 27.96998723 -31.10961914 25.72753906 C-30.55105225 25.13457031 -29.99248535 24.54160156 -29.41699219 23.93066406 C-28.51654175 22.9909375 -28.51654175 22.9909375 -27.59790039 22.03222656 C-23.76455558 18.02547445 -19.9697133 14.02896861 -16.41040039 9.77441406 C-15.85263916 9.12456543 -15.29487793 8.4747168 -14.72021484 7.80517578 C-13.662518 6.56777393 -12.62581801 5.3120159 -11.61425781 4.03662109 C-8.08787469 -0.01273019 -5.34790347 -1.02228593 0 0 Z " fill="#3871C1" transform="translate(36.910400390625,96.0927734375)"/>
<path d="M0 0 C0.02482718 5.28360659 0.04292007 10.56717878 0.05493164 15.85083008 C0.05994225 17.6460835 0.06675255 19.44133287 0.07543945 21.23657227 C0.0876489 23.82569378 0.09326116 26.41476107 0.09765625 29.00390625 C0.10281754 29.79898087 0.10797882 30.59405548 0.11329651 31.41322327 C0.11375707 36.04898956 -0.23115689 40.4268467 -1 45 C-12.15666935 45.69807093 -23.32306433 46.17283531 -34.5 46.375 C-35.57950928 46.41302734 -36.65901855 46.45105469 -37.77124023 46.49023438 C-45.30472918 46.57164514 -45.30472918 46.57164514 -48.74609375 43.7421875 C-50.88962123 39.05447321 -49.34622433 35.80370796 -48 31 C-47.67040194 29.57094973 -47.3437966 28.14120725 -47.01953125 26.7109375 C-44.19956032 15.04299582 -44.19956032 15.04299582 -40.96484375 12.23046875 C-38.8125 11.3125 -38.8125 11.3125 -36.76953125 10.86328125 C-35.89361328 10.43595703 -35.89361328 10.43595703 -35 10 C-34.74976074 9.04327393 -34.49952148 8.08654785 -34.24169922 7.10083008 C-33 4 -33 4 -30.49731445 2.52099609 C-27.10928984 1.44259237 -23.72462424 0.37520083 -20.3125 -0.625 C-18.55389648 -1.20701172 -18.55389648 -1.20701172 -16.75976562 -1.80078125 C-15.61830078 -2.14753906 -14.47683594 -2.49429688 -13.30078125 -2.8515625 C-12.26091064 -3.16947754 -11.22104004 -3.48739258 -10.1496582 -3.81494141 C-5.67946824 -4.07758802 -3.68512223 -2.45790672 0 0 Z " fill="#3772C0" transform="translate(219,173)"/>
<path d="M0 0 C1.41270172 0.10433098 1.41270172 0.10433098 2.85394287 0.21076965 C3.82490906 0.26223648 4.79587524 0.31370331 5.79626465 0.36672974 C8.8955591 0.53660085 11.99128352 0.74234187 15.08831787 0.9490509 C17.18974471 1.07056088 19.2913083 1.18973002 21.39300537 1.30647278 C26.54342289 1.59769903 31.69092866 1.92111009 36.83831787 2.2615509 C38.12675132 10.11721695 38.13367025 17.91472103 38.18841553 25.86018372 C38.2050856 27.63505565 38.23251807 29.40985754 38.27044678 31.18440247 C38.32501856 33.75734345 38.34704226 36.32873564 38.36175537 38.9021759 C38.38442474 39.69593628 38.40709412 40.48969666 38.43045044 41.30751038 C38.42181396 43.54377747 38.42181396 43.54377747 37.83831787 47.2615509 C35.43060303 49.22151184 35.43060303 49.22151184 32.83831787 50.2615509 C31.84831787 50.7565509 31.84831787 50.7565509 30.83831787 51.2615509 C26.45043459 50.38990213 22.18779483 49.03142794 17.90081787 47.7615509 C16.6948999 47.43412903 15.48898193 47.10670715 14.246521 46.7693634 C5.48304599 44.16625413 5.48304599 44.16625413 3.59954834 41.52326965 C2.99634188 39.77484513 2.41654508 38.01839456 1.83831787 36.2615509 C0.70394287 35.86838684 -0.43043213 35.47522278 -1.59918213 35.07014465 C-5.80333851 32.93579772 -5.95882744 32.16237764 -7.41168213 27.85920715 C-8.02420825 25.68884945 -8.60660974 23.50980831 -9.16168213 21.3240509 C-9.47234619 20.22641418 -9.78301025 19.12877747 -10.10308838 17.99787903 C-12.74501471 8.28909593 -12.74501471 8.28909593 -9.72515869 2.51472473 C-6.34502491 -0.45625191 -4.36845969 -0.20050791 0 0 Z " fill="#3772C1" transform="translate(181.16168212890625,35.73844909667969)"/>
<path d="M0 0 C4.10450492 1.14462402 8.20854508 2.29090571 12.3125 3.4375 C14.06336914 3.92573242 14.06336914 3.92573242 15.84960938 4.42382812 C16.96787109 4.73642578 18.08613281 5.04902344 19.23828125 5.37109375 C20.7857605 5.8031311 20.7857605 5.8031311 22.36450195 6.24389648 C24.25579852 6.78649449 26.13337905 7.37779302 28 8 C28.433125 9.134375 28.86625 10.26875 29.3125 11.4375 C29.869375 12.613125 30.42625 13.78875 31 15 C31.97590088 15.28431885 32.95180176 15.5686377 33.95727539 15.86157227 C37 17 37 17 38.43139648 19.56616211 C38.74149658 20.62585205 39.05159668 21.68554199 39.37109375 22.77734375 C39.89026367 24.50694336 39.89026367 24.50694336 40.41992188 26.27148438 C40.75572266 27.48126953 41.09152344 28.69105469 41.4375 29.9375 C41.80037109 31.14341797 42.16324219 32.34933594 42.53710938 33.59179688 C45.15162295 42.54513114 45.15162295 42.54513114 44 46 C43.01 46.495 43.01 46.495 42 47 C41.67 47.99 41.34 48.98 41 50 C37.08335068 50.03003565 33.16673213 50.04713166 29.25 50.0625 C28.1775 50.07087891 27.105 50.07925781 26 50.08789062 C15.6035971 50.11811273 5.43690249 49.52184512 -5 49 C-5.33 34.48 -5.66 19.96 -6 5 C-4.35 4.34 -2.7 3.68 -1 3 C-0.67 2.01 -0.34 1.02 0 0 Z " fill="#3772C1" transform="translate(42,169)"/>
<path d="M0 0 C1.72476563 0.00676758 1.72476563 0.00676758 3.484375 0.01367188 C6.23964632 0.02515217 8.99478891 0.04137108 11.75 0.0625 C12.245 1.5475 12.245 1.5475 12.75 3.0625 C13.74 3.7225 14.73 4.3825 15.75 5.0625 C14.81408539 9.08008467 13.79279957 13.07138358 12.75 17.0625 C12.57839355 17.75230957 12.40678711 18.44211914 12.22998047 19.15283203 C11.6828768 21.31924521 11.09556129 23.47145821 10.5 25.625 C10.33218018 26.31529297 10.16436035 27.00558594 9.99145508 27.71679688 C9.421875 29.69140625 9.421875 29.69140625 7.75 33.0625 C5.43347917 34.1008524 3.10017764 35.10275551 0.75 36.0625 C0.47317383 37.03268066 0.19634766 38.00286133 -0.08886719 39.00244141 C-1.25 42.0625 -1.25 42.0625 -3.92382812 43.49389648 C-5.03177734 43.80399658 -6.13972656 44.11409668 -7.28125 44.43359375 C-8.48394531 44.77970703 -9.68664062 45.12582031 -10.92578125 45.48242188 C-12.18777344 45.81822266 -13.44976562 46.15402344 -14.75 46.5 C-16.01199219 46.86287109 -17.27398437 47.22574219 -18.57421875 47.59960938 C-27.93085186 50.22207407 -27.93085186 50.22207407 -30.25 49.0625 C-30.25 48.4025 -30.25 47.7425 -30.25 47.0625 C-31.9 46.4025 -33.55 45.7425 -35.25 45.0625 C-34.92 30.5425 -34.59 16.0225 -34.25 1.0625 C-11.24324324 -0.08783784 -11.24324324 -0.08783784 0 0 Z " fill="#3771C1" transform="translate(71.25,36.9375)"/>
<path d="M0 0 C4.13372096 0.39409892 4.13372096 0.39409892 7.83325195 -1.16137695 C10 -2 10 -2 12.64135742 -1.17651367 C15.84306301 0.45295168 19.02467645 2.10859098 22.1875 3.8125 C23.86489258 4.64297852 23.86489258 4.64297852 25.57617188 5.49023438 C33.31351632 9.61963678 33.31351632 9.61963678 35.13305664 13.27832031 C35.57314377 15.77811906 35.58773178 17.533506 35 20 C33.03515625 22.7578125 33.03515625 22.7578125 30.0625 25.125 C28.95893442 26.04186521 27.85748934 26.96128678 26.7578125 27.8828125 C25.85724121 28.61806152 25.85724121 28.61806152 24.93847656 29.36816406 C21.30201256 32.42938893 17.88710099 35.73179128 14.4375 39 C13.08218307 40.27099524 11.7267233 41.5418382 10.37109375 42.8125 C8.21030601 44.84051536 6.08619341 46.89523982 4 49 C1.18176724 47.70929676 -0.93723933 46.33327379 -3.1796875 44.19921875 C-3.77265625 43.64065186 -4.365625 43.08208496 -4.9765625 42.5065918 C-5.60304688 41.9062915 -6.22953125 41.30599121 -6.875 40.6875 C-10.88175212 36.85415519 -14.87825795 33.0593129 -19.1328125 29.5 C-19.78266113 28.94223877 -20.43250977 28.38447754 -21.10205078 27.80981445 C-22.33945263 26.75211761 -23.59521066 25.71541762 -24.87060547 24.70385742 C-27.29284993 22.59444251 -28.74265013 21.01764887 -29.54003906 17.86450195 C-29.58594437 15.08987917 -29.2583519 13.48502841 -28 11 C-24.59838615 7.9291832 -20.80095703 5.91635253 -16.75 3.8125 C-15.69941406 3.21630859 -14.64882812 2.62011719 -13.56640625 2.00585938 C-5.16773458 -2.5553964 -5.16773458 -2.5553964 0 0 Z " fill="#3772C1" transform="translate(125,206)"/>
<path d="M0 0 C3.71268094 1.54127351 5.98115698 3.80843234 8.75 6.6875 C12.40967893 10.4277886 16.14536103 13.94239942 20.12109375 17.33984375 C22.69348662 19.61274805 25.07630944 22.04849652 27.453125 24.5234375 C29.03168328 26.15658015 29.03168328 26.15658015 31.5 27.375 C33.41193888 29.44626712 33.34909022 30.37338819 33.33984375 33.16015625 C32.89564561 36.56952999 32.34878145 37.70431486 29.69384766 39.95507812 C26.5469173 41.82720432 23.359451 43.46963345 20.0625 45.0625 C18.93908203 45.64193359 17.81566406 46.22136719 16.65820312 46.81835938 C8.44796893 51 8.44796893 51 6 51 C6 50.34 6 49.68 6 49 C4.783125 48.95875 3.56625 48.9175 2.3125 48.875 C1.28576172 48.84019531 1.28576172 48.84019531 0.23828125 48.8046875 C-2.09274063 48.86871147 -2.09274063 48.86871147 -4.29711914 50.15795898 C-7 51 -7 51 -9.66308594 50.17651367 C-12.71240119 48.54604301 -15.74253341 46.89419116 -18.75 45.1875 C-19.81605469 44.63384766 -20.88210937 44.08019531 -21.98046875 43.50976562 C-29.38365128 39.36492649 -29.38365128 39.36492649 -31.04467773 35.68652344 C-31.61600658 32.04705781 -31.47692172 29.82883833 -29.62890625 26.6171875 C-28.94699219 26.04226562 -28.26507813 25.46734375 -27.5625 24.875 C-26.82257813 24.22402344 -26.08265625 23.57304687 -25.3203125 22.90234375 C-24.55460937 22.27457031 -23.78890625 21.64679687 -23 21 C-21.64359118 19.81506173 -20.28933933 18.62764874 -18.9375 17.4375 C-18.27621094 16.86902344 -17.61492187 16.30054687 -16.93359375 15.71484375 C-14.44531549 13.50806768 -12.13772829 11.14951079 -9.80859375 8.77734375 C-6.6755759 5.69846012 -3.33825735 2.85269265 0 0 Z " fill="#3871C1" transform="translate(127,1)"/>
<path d="M0 0 C4.49842457 0.11964509 8.99669058 0.24395855 13.49487305 0.37231445 C15.02022942 0.41521661 16.54562019 0.45691568 18.07104492 0.49731445 C21.71985474 0.59431268 25.36695328 0.70515665 29.01416016 0.85107422 C31.47104037 0.94287239 33.92960498 1.0033492 36.38818359 1.01220703 C42.99947818 1.20461956 42.99947818 1.20461956 45.66821289 3.32617188 C47.06443035 5.27814356 47.64985701 6.62411039 48 9 C47.44749601 12.10381541 46.20050223 14.65609836 44.75 17.4375 C44.39808594 18.16904297 44.04617187 18.90058594 43.68359375 19.65429688 C42.81546602 21.44920961 41.91120059 23.22656521 41 25 C43.09168423 22.10021128 43.09168423 22.10021128 44.19140625 18.8984375 C47.72500785 9.81778609 47.72500785 9.81778609 51.11328125 7.64453125 C53.80409824 7.10079103 55.38119848 7.15680837 58 8 C61.1210117 10.28639087 63.46491416 13.09772911 66 16 C67.33235048 17.21192649 68.68626875 18.40064323 70.0625 19.5625 C73.28796233 22.33438169 76.28293235 25.25639754 79.2578125 28.29296875 C81.62855127 30.6158675 84.15194382 32.72929009 86.71484375 34.8359375 C87.35099609 35.41214844 87.35099609 35.41214844 88 36 C88 36.33 88 36.66 88 37 C57.97597602 38.36818337 29.93316687 27.10556618 7 8 C6.22269531 7.37480469 5.44539063 6.74960938 4.64453125 6.10546875 C3.04700567 4.79492381 1.51292106 3.40736843 0 2 C0 1.34 0 0.68 0 0 Z " fill="#3772C1" transform="translate(38,219)"/>
<path d="M0 0 C8.22664297 2.57364791 16.11978478 5.86352475 24.0625 9.1875 C25.41849914 9.75224291 26.77461807 10.31669828 28.13085938 10.88085938 C31.42195985 12.25059576 34.71142484 13.62420981 38 15 C38 16.98 38 18.96 38 21 C34.21551624 23.27947991 30.39429521 25.48863561 26.5625 27.6875 C25.49322266 28.33267578 24.42394531 28.97785156 23.32226562 29.64257812 C14.26879275 34.76457348 14.26879275 34.76457348 9.00390625 33.70703125 C4.9528083 31.81203659 3.86987211 29.21808358 2.3359375 25.125 C1.64417647 22.76082053 0.99168687 20.38486376 0.375 18 C-0.14900391 16.19789063 -0.14900391 16.19789063 -0.68359375 14.359375 C-3.17201748 5.51605243 -3.17201748 5.51605243 -2 2 C-1.34 2 -0.68 2 0 2 C0 1.34 0 0.68 0 0 Z " fill="#3772C1" transform="translate(83,182)"/>
<path d="M0 0 C0.92683594 0.515625 1.85367188 1.03125 2.80859375 1.5625 C5.08329425 2.82882811 7.35528792 4.09975925 9.625 5.375 C9.625 7.355 9.625 9.335 9.625 11.375 C4.5365518 13.51574652 -0.55380115 15.65187256 -5.64599609 17.78369141 C-7.37895339 18.50995421 -9.11137809 19.23748918 -10.84326172 19.96630859 C-13.3290218 21.01212065 -15.81664521 22.0533812 -18.3046875 23.09375 C-19.08182098 23.42185669 -19.85895447 23.74996338 -20.65963745 24.0880127 C-26.14725659 26.375 -26.14725659 26.375 -28.375 26.375 C-28.375 25.715 -28.375 25.055 -28.375 24.375 C-29.365 24.045 -30.355 23.715 -31.375 23.375 C-30.43908539 19.35741533 -29.41779957 15.36611642 -28.375 11.375 C-28.20339355 10.68519043 -28.03178711 9.99538086 -27.85498047 9.28466797 C-27.3078768 7.11825479 -26.72056129 4.96604179 -26.125 2.8125 C-25.95718018 2.12220703 -25.78936035 1.43191406 -25.61645508 0.72070312 C-24.49032317 -3.18334953 -23.54678505 -4.51610782 -20.078125 -6.71484375 C-12.55795391 -8.56315584 -6.4014676 -3.5979718 0 0 Z " fill="#3772C0" transform="translate(111.375,47.625)"/>
<path d="M0 0 C1.2065625 0.0309375 1.2065625 0.0309375 2.4375 0.0625 C4.43185913 3.42873782 6.40518901 6.80684823 8.375 10.1875 C8.93896484 11.13882813 9.50292969 12.09015625 10.08398438 13.0703125 C10.62216797 13.9984375 11.16035156 14.9265625 11.71484375 15.8828125 C12.21234131 16.73117676 12.70983887 17.57954102 13.22241211 18.45361328 C15.16214711 22.61837282 15.67123556 25.75403625 14.86108398 30.28930664 C13.4375 33.0625 13.4375 33.0625 10.87133789 34.49389648 C9.81164795 34.80399658 8.75195801 35.11409668 7.66015625 35.43359375 C5.93055664 35.95276367 5.93055664 35.95276367 4.16601562 36.48242188 C2.95623047 36.81822266 1.74644531 37.15402344 0.5 37.5 C-0.70591797 37.86287109 -1.91183594 38.22574219 -3.15429688 38.59960938 C-12.10763114 41.21412295 -12.10763114 41.21412295 -15.5625 40.0625 C-15.5625 39.4025 -15.5625 38.7425 -15.5625 38.0625 C-16.2225 38.0625 -16.8825 38.0625 -17.5625 38.0625 C-16.87294321 33.65652821 -15.34326186 29.7099733 -13.65625 25.609375 C-13.22910706 24.55813446 -13.22910706 24.55813446 -12.79333496 23.48565674 C-12.19359876 22.01236314 -11.59171018 20.53994408 -10.98779297 19.06835938 C-10.06071175 16.80814026 -9.14118375 14.54495686 -8.22265625 12.28125 C-7.63846228 10.84877822 -7.05384187 9.41648026 -6.46875 7.984375 C-6.19268921 7.30526062 -5.91662842 6.62614624 -5.63220215 5.92645264 C-3.22579275 0.07867787 -3.22579275 0.07867787 0 0 Z " fill="#3871C1" transform="translate(199.5625,134.9375)"/>
<path d="M0 0 C4.0176163 0.93592198 8.00958914 1.95429485 12 3 C12.69512695 3.17692383 13.39025391 3.35384766 14.10644531 3.53613281 C16.28762687 4.10119058 18.45594656 4.70269931 20.625 5.3125 C21.32367188 5.48869873 22.02234375 5.66489746 22.7421875 5.84643555 C24.7265625 6.42578125 24.7265625 6.42578125 28 8 C30.34834775 12.3053042 30.04712556 15.32756288 29 20 C27.78491211 22.60888672 27.78491211 22.60888672 26.27734375 25.1796875 C25.73916016 26.1078125 25.20097656 27.0359375 24.64648438 27.9921875 C23.80053711 29.41917969 23.80053711 29.41917969 22.9375 30.875 C22.08575195 32.33679688 22.08575195 32.33679688 21.21679688 33.828125 C19.81937591 36.2237038 18.41363019 38.61396262 17 41 C15.35 41 13.7 41 12 41 C8.10362609 32.90165423 4.55432538 24.68000519 1.125 16.375 C0.71967041 15.40288574 0.31434082 14.43077148 -0.10327148 13.42919922 C-0.47911377 12.51154785 -0.85495605 11.59389648 -1.2421875 10.6484375 C-1.5810498 9.82520996 -1.91991211 9.00198242 -2.26904297 8.15380859 C-3 6 -3 6 -3 3 C-2.34 3 -1.68 3 -1 3 C-0.67 2.01 -0.34 1.02 0 0 Z " fill="#3872C0" transform="translate(185,80)"/>
<path d="M0 0 C0.48952148 0.5566333 0.97904297 1.1132666 1.48339844 1.68676758 C0.76406538 7.74254823 -0.5808432 13.54510904 -2.14160156 19.43676758 C-2.47611328 20.8540918 -2.47611328 20.8540918 -2.81738281 22.30004883 C-4.60084582 28.93377632 -4.60084582 28.93377632 -7.1484375 31.02856445 C-10.59689021 32.65244875 -12.99504445 32.8918119 -16.51660156 31.68676758 C-18.27354993 30.82372652 -20.00624143 29.910513 -21.71972656 28.96411133 C-22.69941406 28.42592773 -23.67910156 27.88774414 -24.68847656 27.33325195 C-25.70425781 26.76928711 -26.72003906 26.20532227 -27.76660156 25.62426758 C-28.79785156 25.05643555 -29.82910156 24.48860352 -30.89160156 23.90356445 C-33.43555174 22.50203635 -35.97708439 21.09630738 -38.51660156 19.68676758 C-38.51660156 17.70676758 -38.51660156 15.72676758 -38.51660156 13.68676758 C-33.47351942 11.47025776 -28.42017145 9.2799344 -23.35546875 7.11328125 C-21.63363497 6.37236013 -19.91484068 5.62433404 -18.19921875 4.86914062 C-15.73451309 3.78566741 -13.26005534 2.72809932 -10.78222656 1.67504883 C-10.01541565 1.33145828 -9.24860474 0.98786774 -8.45855713 0.63386536 C-3.08277134 -1.6086755 -3.08277134 -1.6086755 0 0 Z " fill="#3871C1" transform="translate(173.5166015625,183.313232421875)"/>
<path d="M0 0 C1.98 0 3.96 0 6 0 C8.02895113 4.74361083 10.04049913 9.49408765 12.03637695 14.25170898 C12.71752899 15.8686145 13.40336657 17.48355455 14.09399414 19.09643555 C15.08682525 21.41733017 16.06250171 23.74480895 17.03515625 26.07421875 C17.34655045 26.79212082 17.65794464 27.51002289 17.97877502 28.24967957 C19.59161209 32.16334186 20.65164449 34.96998745 19 39 C16 41 16 41 13.48803711 40.6003418 C12.5110083 40.30297119 11.53397949 40.00560059 10.52734375 39.69921875 C9.46322266 39.38146484 8.39910156 39.06371094 7.30273438 38.73632812 C6.19220703 38.39021484 5.08167969 38.04410156 3.9375 37.6875 C2.82310547 37.35298828 1.70871094 37.01847656 0.56054688 36.67382812 C-9.60515621 33.5976087 -9.60515621 33.5976087 -11.07348633 31.37524414 C-12.76854794 27.51837749 -13.35879695 25.09535965 -12.02099609 21.01123047 C-10.3753844 17.72358561 -8.58677961 14.58525712 -6.6875 11.4375 C-6.05392578 10.33341797 -5.42035156 9.22933594 -4.76757812 8.09179688 C-3.20483542 5.37755955 -1.6159139 2.68280492 0 0 Z " fill="#3772C1" transform="translate(53,135)"/>
<path d="M0 0 C0.515625 0.53625 1.03125 1.0725 1.5625 1.625 C1.01730404 6.85593421 -0.27731548 11.25766697 -2.37890625 16.08984375 C-2.66603989 16.76801651 -2.95317352 17.44618927 -3.24900818 18.14491272 C-4.15825698 20.28750711 -5.07889247 22.42498089 -6 24.5625 C-6.6225072 26.02376398 -7.2442595 27.48534981 -7.86523438 28.94726562 C-9.38062295 32.51028976 -10.90623581 36.06877147 -12.4375 39.625 C-14.4175 39.625 -16.3975 39.625 -18.4375 39.625 C-20.71697991 35.84051624 -22.92613561 32.01929521 -25.125 28.1875 C-25.77017578 27.11822266 -26.41535156 26.04894531 -27.08007812 24.94726562 C-32.1981032 15.90081049 -32.1981032 15.90081049 -30.91015625 10.5546875 C-29.32084742 7.16136089 -27.69163778 5.87494766 -24.234375 4.50390625 C-22.56244193 4.0271544 -20.87903303 3.58920701 -19.1875 3.1875 C-17.93646484 2.84428711 -17.93646484 2.84428711 -16.66015625 2.49414062 C-15.02451767 2.04864095 -13.38389828 1.62097348 -11.73852539 1.21289062 C-9.62278708 0.67233913 -7.5606613 0.04057615 -5.48046875 -0.62109375 C-2.4375 -1.375 -2.4375 -1.375 0 0 Z " fill="#3771C1" transform="translate(71.4375,81.375)"/>
<path d="M0 0 C0.99128906 0.10699219 1.98257813 0.21398438 3.00390625 0.32421875 C7.35060893 2.75542534 7.73602079 5.81195513 9.06445312 10.46289062 C9.35255859 11.56826172 9.64066406 12.67363281 9.9375 13.8125 C10.25267578 14.90626953 10.56785156 16.00003906 10.89257812 17.12695312 C13.49527602 26.55526934 13.49527602 26.55526934 12 31 C11.01 31.66 10.02 32.32 9 33 C6.14716799 32.10007108 3.55963942 31.10983408 0.83203125 29.9140625 C0.03721848 29.57829193 -0.7575943 29.24252136 -1.57649231 28.89657593 C-4.11918795 27.81889594 -6.65320122 26.72226097 -9.1875 25.625 C-10.9076663 24.89196815 -12.62836359 24.160181 -14.34960938 23.4296875 C-18.57270802 21.63418814 -22.78811709 19.82164488 -27 18 C-27 16.02 -27 14.04 -27 12 C-23.26146437 9.79244552 -19.50752268 7.61255345 -15.75 5.4375 C-14.68652344 4.80908203 -13.62304688 4.18066406 -12.52734375 3.53320312 C-11.50253906 2.94345703 -10.47773438 2.35371094 -9.421875 1.74609375 C-8.47924805 1.19622803 -7.53662109 0.6463623 -6.56542969 0.07983398 C-3.70423644 -1.12449203 -2.83140825 -1.05958154 0 0 Z " fill="#3772C1" transform="translate(162,41)"/>
<path d="M0 0 C5.32141658 16.1483239 8.35933045 29.97172902 8 47 C0.58959899 40.86758321 -5.76063534 33.93660132 -12.25732422 26.86474609 C-13.73065446 25.28821256 -15.25291816 23.75762533 -16.78515625 22.23828125 C-17.51605469 21.49964844 -18.24695313 20.76101562 -19 20 C-19.61875 19.401875 -20.2375 18.80375 -20.875 18.1875 C-22.67521118 14.68708937 -21.69884184 11.81186457 -21 8 C-17.87745057 6.66087415 -14.75157642 5.32969342 -11.625 4 C-10.73554688 3.6184375 -9.84609375 3.236875 -8.9296875 2.84375 C-8.07890625 2.4828125 -7.228125 2.121875 -6.3515625 1.75 C-5.56604004 1.41484375 -4.78051758 1.0796875 -3.97119141 0.734375 C-2 0 -2 0 0 0 Z " fill="#3771C1" transform="translate(248,79)"/>
<path d="M0 0 C0.33 0 0.66 0 1 0 C1.75791679 16.63206281 -1.24203214 31.37998081 -7 47 C-14.18216433 44.72564796 -21.0758202 41.96415819 -28 39 C-29.52104392 31.83809973 -29.52104392 31.83809973 -27.25390625 28.19140625 C-26.36574219 27.32386719 -25.47757813 26.45632812 -24.5625 25.5625 C-23.55409384 24.5461616 -22.54632186 23.52919372 -21.5390625 22.51171875 C-20.97993164 21.96177246 -20.42080078 21.41182617 -19.84472656 20.84521484 C-16.2804186 17.27996345 -12.877029 13.56001543 -9.4375 9.875 C-8.06244421 8.41288941 -6.68622352 6.95187309 -5.30859375 5.4921875 C-4.71876709 4.86683105 -4.12894043 4.24147461 -3.52124023 3.59716797 C-2.36400278 2.38217079 -1.18646885 1.18646885 0 0 Z " fill="#3772C1" transform="translate(255,130)"/>
<path d="M0 0 C-1.93782025 4.338982 -4.9618218 6.7887022 -8.625 9.6875 C-9.28218018 10.21134277 -9.93936035 10.73518555 -10.61645508 11.27490234 C-17.61258291 16.70357364 -25.15407888 20.93579463 -33 25 C-33.72832031 25.40992188 -34.45664063 25.81984375 -35.20703125 26.2421875 C-37 27 -37 27 -41 27 C-42.17314026 24.23174812 -43.33870215 21.46071514 -44.5 18.6875 C-44.83386719 17.90181641 -45.16773438 17.11613281 -45.51171875 16.30664062 C-45.82753906 15.54931641 -46.14335937 14.79199219 -46.46875 14.01171875 C-46.76201172 13.31522217 -47.05527344 12.61872559 -47.35742188 11.90112305 C-48 10 -48 10 -48 7 C-47.34 7 -46.68 7 -46 7 C-45.67 5.35 -45.34 3.7 -45 2 C-40.03802528 1.71188287 -35.07587006 1.42718159 -30.11352539 1.14550781 C-28.42890258 1.04941869 -26.74433074 0.95243109 -25.05981445 0.85449219 C-22.62464364 0.7130719 -20.18930172 0.57499093 -17.75390625 0.4375 C-16.64239952 0.37187866 -16.64239952 0.37187866 -15.50843811 0.30493164 C-10.33177864 0.01706795 -5.18474753 -0.03586509 0 0 Z " fill="#3871C1" transform="translate(218,219)"/>
<path d="M0 0 C4.9003248 0.54614307 8.77703152 2.10477516 13.0625 4.4375 C13.71154297 4.78731934 14.36058594 5.13713867 15.02929688 5.49755859 C21.90042127 9.31949609 27.94876472 14.00877421 34 19 C35.16982422 19.93972656 35.16982422 19.93972656 36.36328125 20.8984375 C37.95762741 22.20842132 39.48913887 23.59454778 41 25 C41 25.66 41 26.32 41 27 C36.51989125 26.88017597 32.03993442 26.75585898 27.56005859 26.62768555 C26.04153683 26.58483569 24.52298213 26.54313499 23.00439453 26.50268555 C13.97175718 26.261219 4.99794623 25.88695285 -4 25 C-4.33 23.35 -4.66 21.7 -5 20 C-5.66 20 -6.32 20 -7 20 C-6.41161801 15.15888235 -4.92346884 11.03928805 -2.9375 6.625 C-2.65583984 5.98433594 -2.37417969 5.34367188 -2.08398438 4.68359375 C-1.39540579 3.11970341 -0.69855289 1.55946059 0 0 Z " fill="#3771C1" transform="translate(177,10)"/>
<path d="M0 0 C1.46573857 2.83145888 2.86278476 5.69185943 4.25 8.5625 C4.66507813 9.36236328 5.08015625 10.16222656 5.5078125 10.98632812 C6.98600636 14.1083755 8.17597543 16.62796132 7.72851562 20.11669922 C6.77545511 22.37416034 5.94906744 23.50736153 4 25 C0.36237665 26.07979538 -3.22633606 25.98640415 -7 26 C-9.03782107 26.07614056 -11.0756378 26.15251842 -13.11325073 26.23403931 C-16.80382544 26.37349834 -20.49563001 26.46472591 -24.1875 26.5625 C-25.72722239 26.60580621 -27.26693606 26.64942381 -28.80664062 26.69335938 C-32.53766684 26.79915736 -36.26879289 26.90076068 -40 27 C-38.06217975 22.661018 -35.0381782 20.2112978 -31.375 17.3125 C-30.71781982 16.78865723 -30.06063965 16.26481445 -29.38354492 15.72509766 C-22.38741709 10.29642636 -14.84592112 6.06420537 -7 2 C-6.25105469 1.59007812 -5.50210938 1.18015625 -4.73046875 0.7578125 C-3 0 -3 0 0 0 Z " fill="#3871C1" transform="translate(78,10)"/>
<path d="M0 0 C0.556875 0.15339844 1.11375 0.30679688 1.6875 0.46484375 C2.86328304 3.04436778 4.028291 5.62788313 5.1875 8.21484375 C5.52136719 8.94445312 5.85523438 9.6740625 6.19921875 10.42578125 C6.51503906 11.13476562 6.83085937 11.84375 7.15625 12.57421875 C7.44951172 13.22358398 7.74277344 13.87294922 8.04492188 14.54199219 C8.6875 16.46484375 8.6875 16.46484375 8.6875 20.46484375 C-7.12153962 25.99539886 -20.54378664 28.81869702 -37.3125 28.46484375 C-32.99220479 23.24280469 -28.41284646 18.5611162 -23.4375 13.96484375 C-22.76847656 13.33964844 -22.09945312 12.71445313 -21.41015625 12.0703125 C-20.06528492 10.81872704 -18.71407575 9.57391532 -17.35644531 8.33618164 C-15.95469695 7.05280835 -14.56929483 5.75141828 -13.19824219 4.43530273 C-12.51149414 3.79407471 -11.82474609 3.15284668 -11.1171875 2.4921875 C-10.50601074 1.90945068 -9.89483398 1.32671387 -9.26513672 0.72631836 C-6.14214622 -1.29124752 -3.51819841 -0.71909123 0 0 Z " fill="#3871C1" transform="translate(167.3125,227.53515625)"/>
<path d="M0 0 C16.21135748 -0.7387454 30.94708934 1.76663612 46 8 C45.41161801 12.84111765 43.92346884 16.96071195 41.9375 21.375 C41.65583984 22.01566406 41.37417969 22.65632813 41.08398438 23.31640625 C40.39540579 24.88029659 39.69855289 26.44053941 39 28 C35.88271168 29.03156642 33.27012074 29.43053365 30 29 C26.16716191 26.48542592 23.14101802 23.31900904 20 20 C18.79414022 18.78919817 17.58608266 17.58057774 16.375 16.375 C15.8284375 15.81683594 15.281875 15.25867187 14.71875 14.68359375 C12.25953988 12.27468565 9.63765879 10.07199414 6.9921875 7.87109375 C4.39653336 5.43321466 2.24242408 2.76617365 0 0 Z " fill="#3771C1" transform="translate(130,0)"/>
<path d="M0 0 C-0.61530505 4.4504256 -2.33559232 8.08545658 -4.4375 12 C-4.78659424 12.65282959 -5.13568848 13.30565918 -5.49536133 13.97827148 C-9.30710294 20.88251088 -13.98743241 26.92440829 -19 33 C-19.4429541 33.56187012 -19.8859082 34.12374023 -20.34228516 34.70263672 C-21.51670558 36.17205985 -22.75405121 37.59071675 -24 39 C-24.66 39 -25.32 39 -26 39 C-26.02479671 33.69808286 -26.04290578 28.3961998 -26.05493164 23.09423828 C-26.05994733 21.29214896 -26.06676146 19.49006369 -26.07543945 17.68798828 C-26.08762636 15.09146118 -26.09325606 12.49498808 -26.09765625 9.8984375 C-26.10281754 9.0982016 -26.10797882 8.2979657 -26.11329651 7.47348022 C-26.11442145 -3.85075288 -26.11442145 -3.85075288 -23 -7.0625 C-15.59209917 -9.37746901 -6.60691644 -3.12439226 0 0 Z " fill="#3771C1" transform="translate(246,178)"/>
<path d="M0 0 C4.79371559 2.090691 7.09255119 5.4754469 10.1875 9.5625 C10.75686279 10.31031738 11.32622559 11.05813477 11.9128418 11.82861328 C26 30.81625569 26 30.81625569 26 39 C23.09500913 40.40071625 20.17464053 41.76584957 17.25 43.125 C16.425 43.52332031 15.6 43.92164063 14.75 44.33203125 C13.95078125 44.69941406 13.1515625 45.06679687 12.328125 45.4453125 C11.5949707 45.79094238 10.86181641 46.13657227 10.10644531 46.49267578 C7.35022219 47.15649493 6.37762865 46.43832605 4 45 C3.01 44.67 2.02 44.34 1 44 C-0.0151052 38.97716113 -0.13052591 34.19786627 -0.09765625 29.1015625 C-0.0962413 28.26660248 -0.09482635 27.43164246 -0.09336853 26.57138062 C-0.08780174 23.92254958 -0.07525547 21.2738052 -0.0625 18.625 C-0.0574807 16.82161581 -0.05291855 15.01823029 -0.04882812 13.21484375 C-0.0378432 8.80986279 -0.02060163 4.40494606 0 0 Z " fill="#3772C0" transform="translate(220,39)"/>
<path d="M0 0 C3.41876307 2.77235829 6.55753903 5.41581482 9.375 8.8125 C11.81018389 11.67142735 14.32119161 14.36773461 17 17 C19.7016736 19.68060792 22.36430632 22.38277151 24.9375 25.1875 C25.78634766 26.10595703 25.78634766 26.10595703 26.65234375 27.04296875 C28.99495127 30.44484227 29.11721247 33.01990426 28.6328125 37.0703125 C26.14942915 41.52614387 22.55314361 42.29890261 17.875 43.875 C17.02550781 44.18179688 16.17601563 44.48859375 15.30078125 44.8046875 C13.20698505 45.5575131 11.10796595 46.28802958 9 47 C3.01314557 34.81247492 -0.21199883 21.69489416 -0.0625 8.125 C-0.05798828 7.34125 -0.05347656 6.5575 -0.04882812 5.75 C-0.03714093 3.83329986 -0.01920908 1.91663952 0 0 Z " fill="#3871C1" transform="translate(0,130)"/>
<path d="M0 0 C2.97249544 1.00396728 5.92413629 2.05928594 8.875 3.125 C9.71675781 3.40859375 10.55851562 3.6921875 11.42578125 3.984375 C17.62836584 6.26692613 17.62836584 6.26692613 19.56640625 10.08984375 C20.05612157 13.37667178 20.27864227 14.91621571 19 18 C17.41123913 19.81700539 15.71886252 21.45939669 13.9609375 23.11328125 C12.01120608 24.98921805 10.25754718 26.94422648 8.5 29 C5.70561433 32.24448806 2.76435257 35.2626038 -0.29296875 38.2578125 C-2.6158675 40.62855127 -4.72929009 43.15194382 -6.8359375 45.71484375 C-7.22007813 46.13894531 -7.60421875 46.56304687 -8 47 C-8.33 47 -8.66 47 -9 47 C-9.72774554 31.03002833 -7.55273917 15.73597213 -1 1 C-0.67 0.67 -0.34 0.34 0 0 Z " fill="#3772C1" transform="translate(9,79)"/>
<path d="M0 0 C0.76570313 0.00902344 1.53140625 0.01804688 2.3203125 0.02734375 C4.17201647 0.05049005 6.02355499 0.08633874 7.875 0.125 C5.08408111 3.5677771 2.41611009 6.7204665 -1 9.5625 C-3.65588013 11.82546902 -6.18293106 14.13275156 -8.625 16.625 C-11.74951979 19.80698222 -15.04310479 22.74034733 -18.42578125 25.64453125 C-19.70229445 26.75671172 -20.92783014 27.92783014 -22.125 29.125 C-25.47346993 29.86836032 -28.03759372 29.62459734 -31.125 28.125 C-35.24141723 22.08469935 -37.21489494 15.10798874 -39.125 8.125 C-36.00241475 7.15868031 -32.87652746 6.20348001 -29.75 5.25 C-28.44482422 4.84587891 -28.44482422 4.84587891 -27.11328125 4.43359375 C-18.03291084 1.67585162 -9.51875548 -0.21940394 0 0 Z " fill="#3771C1" transform="translate(118.125,-0.125)"/>
<path d="M0 0 C0.99 0 1.98 0 3 0 C3.00289895 3.05323362 3.00338627 6.10643309 3.00048828 9.15966797 C3.00016756 11.68213647 3.00615485 14.20461519 3.01904297 16.72705078 C3.02741901 20.50661547 2.98597647 24.28327427 2.9375 28.0625 C2.94845703 29.35349609 2.95941406 30.64449219 2.97070312 31.97460938 C2.80885354 40.84859095 2.80885354 40.84859095 0.69140625 43.86279297 C-1.97266478 45.7419145 -3.92972402 46.15726851 -7.15161133 45.68383789 C-9.50175325 44.95846626 -11.64731684 44.04086575 -13.875 43 C-15.03128906 42.52240234 -15.03128906 42.52240234 -16.2109375 42.03515625 C-21.73612924 39.61302114 -21.73612924 39.61302114 -22.81811523 37.09936523 C-23.14323248 33.34677032 -20.94321752 30.26090838 -19.1875 27.0625 C-18.78313721 26.31194336 -18.37877441 25.56138672 -17.9621582 24.78808594 C-13.98272258 17.60818103 -9.22537527 11.31737943 -4 5 C-3.30519531 4.05640625 -2.61039063 3.1128125 -1.89453125 2.140625 C-0.95673828 1.08101562 -0.95673828 1.08101562 0 0 Z " fill="#3872C1" transform="translate(33,40)"/>
<path d="M0 0 C3.12811471 4.45289463 2.29034799 10.58610245 2.24609375 15.80029297 C2.26220703 17.05648437 2.27832031 18.31267578 2.29492188 19.60693359 C2.33560845 23.35978594 2.32776921 27.10981189 2.30859375 30.86279297 C2.30890913 33.34326204 2.31014566 35.82373124 2.3125 38.30419922 C2.311524 40.157064 2.31035298 42.00992876 2.30859375 43.86279297 C-1.1159529 43.29977818 -2.49000735 42.3649171 -4.609375 39.64404297 C-5.13772949 38.96688232 -5.66608398 38.28972168 -6.21044922 37.59204102 C-6.76104004 36.85638916 -7.31163086 36.1207373 -7.87890625 35.36279297 C-8.44754395 34.60973877 -9.01618164 33.85668457 -9.60205078 33.08081055 C-13.50193955 27.78449582 -16.95109842 22.34174071 -20.06640625 16.55029297 C-20.4533667 15.84001953 -20.84032715 15.12974609 -21.23901367 14.39794922 C-23.74938435 9.50588428 -23.74938435 9.50588428 -23.50292969 6.7722168 C-21.94887543 3.11570105 -18.04752344 2.30064572 -14.56640625 0.86279297 C-13.81875 0.51345703 -13.07109375 0.16412109 -12.30078125 -0.19580078 C-7.76948527 -2.09831355 -4.22476347 -2.97996709 0 0 Z " fill="#3771C1" transform="translate(33.69140625,172.13720703125)"/>
</svg>
